Language:English
IMDb:http://akas.imdb.com/title/tt1126591/
Source:DVD
Subtitles:Romana


Format : MPEG-4
Format profile : Base Media
Codec ID : isom
File size : 1.02 GiB
Duration : 1h 59mn
Overall bit rate : 1 224 Kbps
Movie name : Burlesque.2010.DvDRip.x264.Feel-Free


Video
Format settings, CABAC : Yes
Format settings, ReFrames : 4 frames
Codec ID : avc1
Codec ID/Info : Advanced Video Coding
Duration : 1h 59mn
Bit rate mode : Variable
Bit rate : 834 Kbps
Nominal bit rate : 786 Kbps
Width : 720 pixels
Height : 304 pixels
Display aspect ratio : 2.35:1
Frame rate mode : Constant
Frame rate : 23.976 fps
Color space : YUV
Chroma subsampling : 4:2:0
Bit depth : 8 bits
Scan type : Progressive
Bits/(Pixel*Frame) : 0.159
Stream size : 710 MiB (68%)
Writing library : x264

Audio
ID : 2
Format : AAC
Format/Info : Advanced Audio Codec
Format version : Version 4
Format profile : LC
Codec ID : 40
Duration : 1h 58mn
Bit rate mode : Variable
Bit rate : 384 Kbps
Channel(s) : 6 channels
Channel positions : Front: L C R, Side: L R, LFE
Sampling rate : 48.0 KHz
Stream size : 327 MiB (31%)


Plot:
A small-town girl ventures to Los Angeles and finds her place in a neo-burlesque club run by a former dancer







================================== 
http://thepiratebay.org/user/hiest
==================================







Screenshots:
 
http://rapidhdd.com/images/211039vlcsnap-00001.png
 
http://www.rapidhdd.com/images/428378vlcsnap-00004.png
 
http://www.rapidhdd.com/images/562534vlcsnap-00002.png
 
http://www.rapidhdd.com/images/306039vlcsnap-00006.png
 
http://www.rapidhdd.com/images/916788vlcsnap-00003.png